[Header]
FileType HTR
DataType HTRS
FileVersion 1
NumSegments 64
NumFrames 4
DataFrameRate 24
EulerRotationOrder ZYX
CalibrationUnits mm
RotationUnits Degrees
GlobalAxisofGravity Y
BoneLengthAxis Y
ScaleFactor 1.0
[SegmentNames&Hierarchy]
Hips	GLOBAL
Spine	Hips
Spine1	Spine
Spine2	Spine1
Neck	Spine2
Head	Neck
LeftEye	Head
RightEye	Head
LeftShoulder	Spine2
LeftArm	LeftShoulder
LeftForeArm	LeftArm
LeftHand	LeftForeArm
LeftHandThumb1	LeftHand
LeftHandThumb2	LeftHandThumb1
LeftHandThumb3	LeftHandThumb2
LeftHandThumb4	LeftHandThumb3
LeftHandIndex1	LeftHand
LeftHandIndex2	LeftHandIndex1
LeftHandIndex3	LeftHandIndex2
LeftHandIndex4	LeftHandIndex3
LeftHandMiddle1	LeftHand
LeftHandMiddle2	LeftHandMiddle1
LeftHandMiddle3	LeftHandMiddle2
LeftHandMiddle4	LeftHandMiddle3
LeftHandRing1	LeftHand
LeftHandRing2	LeftHandRing1
LeftHandRing3	LeftHandRing2
LeftHandRing4	LeftHandRing3
LeftHandPinky1	LeftHand
LeftHandPinky2	LeftHandPinky1
LeftHandPinky3	LeftHandPinky2
LeftHandPinky4	LeftHandPinky3
RightShoulder	Spine2
RightArm	RightShoulder
RightForeArm	RightArm
RightHand	RightForeArm
RightHandPinky1	RightHand
RightHandPinky2	RightHandPinky1
RightHandPinky3	RightHandPinky2
RightHandPinky4	RightHandPinky3
RightHandRing1	RightHand
RightHandRing2	RightHandRing1
RightHandRing3	RightHandRing2
RightHandRing4	RightHandRing3
RightHandMiddle1	RightHand
RightHandMiddle2	RightHandMiddle1
RightHandMiddle3	RightHandMiddle2
RightHandMiddle4	RightHandMiddle3
RightHandIndex1	RightHand
RightHandIndex2	RightHandIndex1
RightHandIndex3	RightHandIndex2
RightHandIndex4	RightHandIndex3
RightHandThumb1	RightHand
RightHandThumb2	RightHandThumb1
RightHandThumb3	RightHandThumb2
RightHandThumb4	RightHandThumb3
LeftUpLeg	Hips
LeftLeg	LeftUpLeg
LeftFoot	LeftLeg
LeftToeBase	LeftFoot
RightUpLeg	Hips
RightLeg	RightUpLeg
RightFoot	RightLeg
RightToeBase	RightFoot
[BasePosition]
Hips	0	0	0	0	0	0	1
Spine	0	0	0	0	0	0	1
Spine1	0	0	0	0	0	0	1
Spine2	0	0	0	0	0	0	1
Neck	0	0	0	0	0	0	1
Head	0	0	0	0	0	0	1
LeftEye	0	0	0	0	0	0	1
RightEye	0	0	0	0	0	0	1
LeftShoulder	0	0	0	0	0	0	1
LeftArm	0	0	0	0	0	0	1
LeftForeArm	0	0	0	0	0	0	1
LeftHand	0	0	0	0	0	0	1
LeftHandThumb1	0	0	0	0	0	0	1
LeftHandThumb2	0	0	0	0	0	0	1
LeftHandThumb3	0	0	0	0	0	0	1
LeftHandThumb4	0	0	0	0	0	0	1
LeftHandIndex1	0	0	0	0	0	0	1
LeftHandIndex2	0	0	0	0	0	0	1
LeftHandIndex3	0	0	0	0	0	0	1
LeftHandIndex4	0	0	0	0	0	0	1
LeftHandMiddle1	0	0	0	0	0	0	1
LeftHandMiddle2	0	0	0	0	0	0	1
LeftHandMiddle3	0	0	0	0	0	0	1
LeftHandMiddle4	0	0	0	0	0	0	1
LeftHandRing1	0	0	0	0	0	0	1
LeftHandRing2	0	0	0	0	0	0	1
LeftHandRing3	0	0	0	0	0	0	1
LeftHandRing4	0	0	0	0	0	0	1
LeftHandPinky1	0	0	0	0	0	0	1
LeftHandPinky2	0	0	0	0	0	0	1
LeftHandPinky3	0	0	0	0	0	0	1
LeftHandPinky4	0	0	0	0	0	0	1
RightShoulder	0	0	0	0	0	0	1
RightArm	0	0	0	0	0	0	1
RightForeArm	0	0	0	0	0	0	1
RightHand	0	0	0	0	0	0	1
RightHandPinky1	0	0	0	0	0	0	1
RightHandPinky2	0	0	0	0	0	0	1
RightHandPinky3	0	0	0	0	0	0	1
RightHandPinky4	0	0	0	0	0	0	1
RightHandRing1	0	0	0	0	0	0	1
RightHandRing2	0	0	0	0	0	0	1
RightHandRing3	0	0	0	0	0	0	1
RightHandRing4	0	0	0	0	0	0	1
RightHandMiddle1	0	0	0	0	0	0	1
RightHandMiddle2	0	0	0	0	0	0	1
RightHandMiddle3	0	0	0	0	0	0	1
RightHandMiddle4	0	0	0	0	0	0	1
RightHandIndex1	0	0	0	0	0	0	1
RightHandIndex2	0	0	0	0	0	0	1
RightHandIndex3	0	0	0	0	0	0	1
RightHandIndex4	0	0	0	0	0	0	1
RightHandThumb1	0	0	0	0	0	0	1
RightHandThumb2	0	0	0	0	0	0	1
RightHandThumb3	0	0	0	0	0	0	1
RightHandThumb4	0	0	0	0	0	0	1
LeftUpLeg	0	0	0	0	0	0	1
LeftLeg	0	0	0	0	0	0	1
LeftFoot	0	0	0	0	0	0	1
LeftToeBase	0	0	0	0	0	0	1
RightUpLeg	0	0	0	0	0	0	1
RightLeg	0	0	0	0	0	0	1
RightFoot	0	0	0	0	0	0	1
RightToeBase	0	0	0	0	0	0	1
[Hips]
31	1.396914959	625.8157959	390.0760193	7.460833549	1.340019941	-0.7793471813	1.0
32	1.292917252	632.5950928	372.0482178	3.282718897	1.27564013	-0.869805336	1.0
33	1.032915592	642.885498	352.5137939	-0.04262957349	1.176647186	-0.9740963578	1.0
34	1.065935254	657.7781982	331.7034607	-2.245214701	1.022523046	-1.102801323	1.0
[Spine]
31	0	101.8159943	1.315000057	8.162549019	-1.227329373	0.9469310045	1.0
32	0	101.8159943	1.315000057	3.560033798	-1.223582029	0.9416123629	1.0
33	0	101.8159943	1.315000057	8.323518753	-1.177200198	0.9734033942	1.0
34	0	101.8159943	1.315000057	12.88403511	1.290927291	1.615356922	1.0
[Spine1]
31	0	100.8349991	-10.00800037	3.888182878	-4.324487236e-05	5.170305303e-05	1.0
32	0	100.8349991	-10.00800037	2.030923605	-4.1511772e-05	5.310439883e-05	1.0
33	0	100.8349991	-10.00800037	-8.333444595	-3.132626443e-05	5.984661766e-05	1.0
34	0	100.8349991	-10.00800037	-16.65413666	2.312573671	-0.712397933	1.0
[Spine2]
31	0	91	-13.73399925	4.740917683	-5.970561379e-09	3.165313274e-07	1.0
32	0	91	-13.73399925	2.199305534	9.457852279e-09	3.164478528e-07	1.0
33	0	91	-13.73399925	-0.0001154361598	-2.41363864e-07	3.137975568e-07	1.0
34	0	91	-13.73399925	-1.472529411	2.418896437	-0.06445933878	1.0
[Neck]
31	0	166.7169952	-25.16200066	-1.705316186	3.205968255e-07	3.456916033e-07	1.0
32	0	166.7169952	-25.16200066	-0.7724906206	3.143603919e-07	3.513808622e-07	1.0
33	0	166.7169952	-25.16200066	0.008941660635	2.614608263e-07	-1.337352273e-08	1.0
34	0	166.7169952	-25.16200066	0.525325954	-2.433862925	0.07290820777	1.0
[Head]
31	0	96.17900085	16.84999847	9.43353653	0.08648514748	-0.02837870084	1.0
32	0	96.17900085	16.84999847	4.442620277	0.01610733569	-0.01394750737	1.0
33	0	96.17900085	16.84999847	0.0179052595	3.803534491e-05	-1.428708085e-08	1.0
34	0	96.17900085	16.84999847	-2.954292536	-3.915670395	0.1538250595	1.0
[LeftEye]
31	30.6760006	64.09500122	92.83599854	0	0	0	1.0
32	30.6760006	64.09500122	92.83599854	0	0	0	1.0
33	30.6760006	64.09500122	92.83599854	0	0	0	1.0
34	30.6760006	64.09500122	92.83599854	0	0	0	1.0
[RightEye]
31	-30.6760006	64.09500122	92.83499908	0	0	0	1.0
32	-30.6760006	64.09500122	92.83499908	0	0	0	1.0
33	-30.6760006	64.09500122	92.83499908	0	0	0	1.0
34	-30.6760006	64.09500122	92.83499908	0	0	0	1.0
[LeftShoulder]
31	45.70400238	109.4599991	-26.28000069	-0.3788973391	-7.821859837	10.40832233	1.0
32	45.70400238	109.4599991	-26.28000069	0.2269139886	-1.395876527	4.881727695	1.0
33	45.70400238	109.4599991	-26.28000069	3.435202984e-07	8.993005736e-07	1.47850742e-05	1.0
34	45.70400238	109.4599991	-26.28000069	-0.208110854	0.0003318939416	-3.282149076	1.0
[LeftArm]
31	105.923996	-5.24600029	-22.32099915	-19.48688507	-14.24564838	-8.831079483	1.0
32	105.923996	-5.24600029	-22.32099915	-9.066488266	-2.510338068	-6.682873249	1.0
33	105.923996	-5.24600029	-22.32099915	8.291042832e-06	3.881438897e-05	0.0001571897737	1.0
34	105.923996	-5.24600029	-22.32099915	6.078467846	0.01444480754	4.901791573	1.0
[LeftForeArm]
31	278.414978	-0.0009999999311	0	-1.457138865e-06	-0.3474263251	-0.0002048708848	1.0
32	278.414978	-0.0009999999311	0	7.719343671e-07	-0.4081967175	-0.0002059669787	1.0
33	278.414978	-0.0009999999311	0	7.792210432e-09	-0.4166556597	-0.0002057927049	1.0
34	278.414978	-0.0009999999311	0	-6.542337587e-07	-13.69444275	-0.0002053699864	1.0
[LeftHand]
31	283.2879944	0	0	-1.157057762	-3.63937521	-7.799981594	1.0
32	283.2879944	0	0	-3.808344841	-2.692182779	-1.744698405	1.0
33	283.2879944	0	0	-5.894141197	-2.348032236	3.362508059	1.0
34	283.2879944	0	0	-7.271414757	-2.268737078	6.760345459	1.0
[LeftHandThumb1]
31	24.6609993	-15.75	26.8239994	0.1313692778	-2.612909555	-1.14526403	1.0
32	24.6609993	-15.75	26.8239994	-3.454382181	-5.181372166	2.070949554	1.0
33	24.6609993	-15.75	26.8239994	-6.515933514	-5.594459534	5.268239498	1.0
34	24.6609993	-15.75	26.8239994	-8.533892632	-5.490347385	7.452998161	1.0
[LeftHandThumb2]
31	32.29800034	-18.64699936	18.64699936	18.06651497	26.96212578	9.576448441	1.0
32	32.29800034	-18.64699936	18.64699936	10.368186	14.73885059	3.897035599	1.0
33	32.29800034	-18.64699936	18.64699936	6.421836853	12.43067932	2.707375288	1.0
34	32.29800034	-18.64699936	18.64699936	4.215131283	12.83381081	2.483159304	1.0
[LeftHandThumb3]
31	26.52600098	-15.31499958	15.31499958	-2.097959042	6.462393284	14.79289341	1.0
32	26.52600098	-15.31499958	15.31499958	-5.510692596	1.88181591	13.5222578	1.0
33	26.52600098	-15.31499958	15.31499958	-7.237569809	1.26126492	13.09554005	1.0
34	26.52600098	-15.31499958	15.31499958	-8.095602036	1.630734682	12.92905331	1.0
[LeftHandThumb4]
31	19.54599953	-11.28499985	11.28499985	0	0	0	1.0
32	19.54599953	-11.28499985	11.28499985	0	0	0	1.0
33	19.54599953	-11.28499985	11.28499985	0	0	0	1.0
34	19.54599953	-11.28499985	11.28499985	0	0	0	1.0
[LeftHandIndex1]
31	91.09299469	-5.170999527	22.60099792	-1.296764612	4.837696075	-22.65576553	1.0
32	91.09299469	-5.170999527	22.60099792	-0.5849487185	3.563779116	-12.4697876	1.0
33	91.09299469	-5.170999527	22.60099792	-0.07261818647	2.677021742	-3.107097626	1.0
34	91.09299469	-5.170999527	22.60099792	0.1869019568	2.025904179	3.211572409	1.0
[LeftHandIndex2]
31	36.76399994	0	0	-0.08084303141	0.9687414169	-9.54039669	1.0
32	36.76399994	0	0	-0.01916464232	0.4729349017	-4.640864849	1.0
33	36.76399994	0	0	-2.757749229e-08	3.910957673e-07	-3.811966053e-06	1.0
34	36.76399994	0	0	-3.393427619e-07	1.236272027e-07	-1.525153675e-05	1.0
[LeftHandIndex3]
31	28.83100128	0	0	-0.04035116732	0.6856437922	-6.736399174	1.0
32	28.83100128	0	0	-0.008781793527	0.3202946186	-3.141103745	1.0
33	28.83100128	0	0	-2.81806507e-08	4.001158231e-07	-3.899883268e-06	1.0
34	28.83100128	0	0	-0.003990431316	-0.2158437073	2.116162539	1.0
[LeftHandIndex4]
31	23.92700005	0	0	0	0	0	1.0
32	23.92700005	0	0	0	0	0	1.0
33	23.92700005	0	0	0	0	0	1.0
34	23.92700005	0	0	0	0	0	1.0
[LeftHandMiddle1]
31	95.33399963	0	0	-1.428334951	3.206732512	-24.18339348	1.0
32	95.33399963	0	0	-0.6350685954	3.364233017	-13.17145348	1.0
33	95.33399963	0	0	-0.07261778414	2.677021027	-3.107098103	1.0
34	95.33399963	0	0	0.2027581632	1.97805512	3.665531635	1.0
[LeftHandMiddle2]
31	36.98199844	0	0	-0.130942136	1.230186939	-12.15090466	1.0
32	36.98199844	0	0	-0.03131383657	0.6042249203	-5.933380604	1.0
33	36.98199844	0	0	-3.534653104e-08	5.01208433e-07	-4.885222097e-06	1.0
34	36.98199844	0	0	2.185317499e-06	5.706628485e-07	-2.51554593e-05	1.0
[LeftHandMiddle3]
31	29.50900078	0	0	-0.03782489151	0.6638903618	-6.521762371	1.0
32	29.50900078	0	0	-0.009903351776	0.3401076794	-3.335630178	1.0
33	29.50900078	0	0	-4.610726378e-08	6.542089181e-07	-6.376500096e-06	1.0
34	29.50900078	0	0	-0.004709554836	-0.2345242053	2.299404621	1.0
[LeftHandMiddle4]
31	28.3390007	0	0	0	0	0	1.0
32	28.3390007	0	0	0	0	0	1.0
33	28.3390007	0	0	0	0	0	1.0
34	28.3390007	0	0	0	0	0	1.0
[LeftHandRing1]
31	91.04499817	-0.4390000105	-18.65100098	-1.236119509	4.302193642	-21.82550049	1.0
32	91.04499817	-0.4390000105	-18.65100098	-0.560536921	3.564357042	-12.08854103	1.0
33	91.04499817	-0.4390000105	-18.65100098	-0.07261773944	2.67702055	-3.107097149	1.0
34	91.04499817	-0.4390000105	-18.65100098	0.1779668033	2.052305698	2.96052599	1.0
[LeftHandRing2]
31	31.54000092	0	0	-0.05804746971	0.8217105269	-8.081645012	1.0
32	31.54000092	0	0	-0.01442536712	0.4104179442	-4.026254654	1.0
33	31.54000092	0	0	-2.422387446e-08	3.441234071e-07	-3.354132105e-06	1.0
34	31.54000092	0	0	1.238204277e-06	2.091007048e-07	-1.202042949e-05	1.0
[LeftHandRing3]
31	29.37700081	0	0	-0.03947026283	0.6781278849	-6.662298203	1.0
32	29.37700081	0	0	-0.009737362154	0.3372445703	-3.307526112	1.0
33	29.37700081	0	0	-2.210064665e-08	3.131489166e-07	-3.05222693e-06	1.0
34	29.37700081	0	0	-0.004557847511	-0.2307171673	2.262055874	1.0
[LeftHandRing4]
31	26.47500038	0	0	0	0	0	1.0
32	26.47500038	0	0	0	0	0	1.0
33	26.47500038	0	0	0	0	0	1.0
34	26.47500038	0	0	0	0	0	1.0
[LeftHandPinky1]
31	80.77799988	-4.887000084	-38.06099701	-1.025546432	3.68274641	-18.96994972	1.0
32	80.77799988	-4.887000084	-38.06099701	-0.476984024	3.413661957	-10.70457649	1.0
33	80.77799988	-4.887000084	-38.06099701	-0.07261852175	2.67702055	-3.107095957	1.0
34	80.77799988	-4.887000084	-38.06099701	0.1439246833	2.149615288	2.031919479	1.0
[LeftHandPinky2]
31	36	0	0	-0.0220759511	0.5075295568	-4.981225014	1.0
32	36	0	0	-0.005892597605	0.2624039054	-2.57295084	1.0
33	36	0	0	-1.573103781e-08	2.231186329e-07	-2.174711653e-06	1.0
34	36	0	0	0	-4.187903642e-07	-7.028624793e-08	1.0
[LeftHandPinky3]
31	21.14200211	0	0	-0.0470206663	0.7398929	-7.272305489	1.0
32	21.14200211	0	0	-0.01023107488	0.3456795216	-3.390336037	1.0
33	21.14200211	0	0	-1.421100659e-08	2.01334359e-07	-1.962382839e-06	1.0
34	21.14200211	0	0	-0.004664110485	-0.2334372997	2.288746119	1.0
[LeftHandPinky4]
31	19.75699997	0	0	0	0	0	1.0
32	19.75699997	0	0	0	0	0	1.0
33	19.75699997	0	0	0	0	0	1.0
34	19.75699997	0	0	0	0	0	1.0
[RightShoulder]
31	-45.70000076	109.4620056	-26.28000069	-0.3789049685	7.821854591	-10.40832233	1.0
32	-45.70000076	109.4620056	-26.28000069	0.2269036621	1.395875096	-4.88173008	1.0
33	-45.70000076	109.4620056	-26.28000069	3.435007727e-07	-8.992999483e-07	-1.434631122e-05	1.0
34	-45.70000076	109.4620056	-26.28000069	-0.2081009597	-0.000332588912	3.282152653	1.0
[RightArm]
31	-105.9280014	-5.248000145	-22.32099915	-19.48680687	14.24571705	8.831331253	1.0
32	-105.9280014	-5.248000145	-22.32099915	-9.066458702	2.510425806	6.683087349	1.0
33	-105.9280014	-5.248000145	-22.32099915	8.274254469e-06	3.479645966e-05	-1.470660573e-05	1.0
34	-105.9280014	-5.248000145	-22.32099915	6.078459263	-0.0143952854	-4.901708603	1.0
[RightForeArm]
31	-278.414978	0	0	1.439168273e-06	0.347224772	-6.398814207e-07	1.0
32	-278.414978	0	0	-4.537370444e-07	0.4079964459	2.168254269e-07	1.0
33	-278.414978	0	0	1.445698494e-08	0.4164534807	2.647563765e-11	1.0
34	-278.414978	0	0	-2.03876084e-07	13.69424152	-2.893214059e-07	1.0
[RightHand]
31	-283.2879944	0	0.0009999999311	0.07102796435	3.503727198	8.549280167	1.0
32	-283.2879944	0	0.0009999999311	-2.592210293	2.591363192	2.498846292	1.0
33	-283.2879944	0	0.0009999999311	-4.682256699	2.274722099	-2.605359793	1.0
34	-283.2879944	0	0.0009999999311	-6.060418606	2.213644028	-6.001680851	1.0
[RightHandPinky1]
31	-80.76699829	-4.885000229	-38.06000137	-0.9065544009	-3.171529055	18.28770256	1.0
32	-80.76699829	-4.885000229	-38.06000137	-0.4204551578	-3.062141418	10.02230072	1.0
33	-80.76699829	-4.885000229	-38.06000137	-0.05218906328	-2.478959799	2.413324356	1.0
34	-80.76699829	-4.885000229	-38.06000137	0.1515654474	-2.057534456	-2.734951258	1.0
[RightHandPinky2]
31	-36	0	0.0009999999311	-0.01745255105	-0.4021165967	4.990689278	1.0
32	-36	0	0.0009999999311	-0.004624759778	-0.2071307003	2.577853918	1.0
33	-36	0	0.0009999999311	1.320737795e-07	0.001591405482	2.182965318e-06	1.0
34	-36	0	0.0009999999311	1.208297022e-06	0.001591249369	1.893247941e-07	1.0
[RightHandPinky3]
31	-21.14200211	0	0	-0.03747034073	-0.5885173082	7.286054611	1.0
32	-21.14200211	0	0	-0.008152684197	-0.2749577165	3.396816015	1.0
33	-21.14200211	0	0	-4.554854343e-07	-3.375605218e-07	4.138396434e-06	1.0
34	-21.14200211	0	0	-0.003717180341	0.1856795102	-2.293114185	1.0
[RightHandPinky4]
31	-19.75699997	0	0	0	0	0	1.0
32	-19.75699997	0	0	0	0	0	1.0
33	-19.75699997	0	0	0	0	0	1.0
34	-19.75699997	0	0	0	0	0	1.0
[RightHandRing1]
31	-91.03599548	-0.4390000105	-18.65100098	-1.090856791	-3.736445665	21.15247154	1.0
32	-91.03599548	-0.4390000105	-18.65100098	-0.4952809215	-3.183877707	11.40844059	1.0
33	-91.03599548	-0.4390000105	-18.65100098	-0.05218850821	-2.477365732	2.413324356	1.0
34	-91.03599548	-0.4390000105	-18.65100098	0.1843091249	-1.977887273	-3.665317059	1.0
[RightHandRing2]
31	-31.54000092	0	0	-0.04626097903	-0.6535919905	8.096869469	1.0
32	-31.54000092	0	0	-0.01149638649	-0.3264515698	4.033927441	1.0
33	-31.54000092	0	0	4.01144149e-07	-3.007067733e-07	3.358408549e-06	1.0
34	-31.54000092	0	0	1.590277359e-15	-3.180554719e-15	-1.590277359e-15	1.0
[RightHandRing3]
31	-29.37700081	0	0	-0.03144955263	-0.5393908024	6.674909592	1.0
32	-29.37700081	0	0	-0.007760065608	-0.2682489753	3.313820601	1.0
33	-29.37700081	0	0	-4.476293043e-07	-2.491711371e-07	3.054768285e-06	1.0
34	-29.37700081	0	0	-0.00363138644	0.1835219413	-2.266370535	1.0
[RightHandRing4]
31	-26.47500038	0	0	0	0	0	1.0
32	-26.47500038	0	0	0	0	0	1.0
33	-26.47500038	0	0	0	0	0	1.0
34	-26.47500038	0	0	0	0	0	1.0
[RightHandMiddle1]
31	-95.32500458	0	0	-1.257763386	-2.598596334	23.48864746	1.0
32	-95.32500458	0	0	-0.562188983	-2.962555647	12.48678112	1.0
33	-95.32500458	0	0	-0.05218858272	-2.477366686	2.413325787	1.0
34	-95.32500458	0	0	0.2083199918	-1.918266177	-4.37168169	1.0
[RightHandMiddle2]
31	-36.98199844	0	0	-0.1043422222	-0.9784798622	12.17340469	1.0
32	-36.98199844	0	0	-0.02495481819	-0.4806065261	5.944644451	1.0
33	-36.98199844	0	0	3.821440657e-07	-4.877680908e-07	5.979899925e-06	1.0
34	-36.98199844	0	0	2.192811479e-07	2.526310709e-06	7.933063898e-05	1.0
[RightHandMiddle3]
31	-29.50900078	0	0	-0.03014809452	-0.5300831199	6.534130096	1.0
32	-29.50900078	0	0	-0.0078922268	-0.272547096	3.341987133	1.0
33	-29.50900078	0	0	-4.559931597e-07	-0.002022120869	4.209969575e-06	1.0
34	-29.50900078	0	0	-0.003750924952	0.1845169812	-2.303791046	1.0
[RightHandMiddle4]
31	-28.3390007	0	0.0009999999311	0	0	0	1.0
32	-28.3390007	0	0.0009999999311	0	0	0	1.0
33	-28.3390007	0	0.0009999999311	0	0	0	1.0
34	-28.3390007	0	0.0009999999311	0	0	0	1.0
[RightHandIndex1]
31	-91.08300018	-5.167999744	22.60099792	-1.143846631	-4.256755352	21.99176598	1.0
32	-91.08300018	-5.167999744	22.60099792	-0.5171281695	-3.175804377	11.78944683	1.0
33	-91.08300018	-5.167999744	22.60099792	-0.05218861252	-2.477362871	2.413326502	1.0
34	-91.08300018	-5.167999744	22.60099792	0.1929419637	-1.956689358	-3.916836023	1.0
[RightHandIndex2]
31	-36.76399994	0	0	-0.0644222945	-0.7705276608	9.558289528	1.0
32	-36.76399994	0	0	-0.01527214702	-0.3761781454	4.649672985	1.0
33	-36.76399994	0	0	3.977839071e-07	-3.38258701e-07	3.818784535e-06	1.0
34	-36.76399994	0	0	0	-0	1.590277359e-15	1.0
[RightHandIndex3]
31	-28.83100128	0	0	-0.03216085956	-0.5453612804	6.749163628	1.0
32	-28.83100128	0	0	-0.006998755969	-0.2547656	3.147083044	1.0
33	-28.83100128	0	0	-4.459131446e-07	-2.299206869e-07	2.818763278e-06	1.0
34	-28.83100128	0	0	-0.003174863057	0.1716812849	-2.120192051	1.0
[RightHandIndex4]
31	-23.92700005	0	0	0	0	0	1.0
32	-23.92700005	0	0	0	0	0	1.0
33	-23.92700005	0	0	0	0	0	1.0
34	-23.92700005	0	0	0	0	0	1.0
[RightHandThumb1]
31	-24.64799881	-15.72700024	26.82600021	-0.9152351618	4.63183403	1.666509986	1.0
32	-24.64799881	-15.72700024	26.82600021	-4.465660095	7.21200037	-1.71690762	1.0
33	-24.64799881	-15.72700024	26.82600021	-7.535458565	7.620223045	-5.027753353	1.0
34	-24.64799881	-15.72700024	26.82600021	-9.563902855	7.508219242	-7.281923294	1.0
[RightHandThumb2]
31	-32.29800034	-18.64699936	18.64699936	18.90363693	-28.67524529	-10.73473644	1.0
32	-32.29800034	-18.64699936	18.64699936	11.06987762	-16.43078423	-4.981039524	1.0
33	-32.29800034	-18.64699936	18.64699936	7.098097324	-14.10493469	-3.79229188	1.0
34	-32.29800034	-18.64699936	18.64699936	4.883743286	-14.4978466	-3.572967529	1.0
[RightHandThumb3]
31	-26.52600098	-15.31399918	15.31399918	1.352711439	-11.83180714	-16.34066772	1.0
32	-26.52600098	-15.31399918	15.31399918	-2.198780537	-7.310502052	-14.79786205	1.0
33	-26.52600098	-15.31399918	15.31399918	-3.95047164	-6.714655399	-14.22184658	1.0
34	-26.52600098	-15.31399918	15.31399918	-4.809895992	-7.095023632	-13.97485733	1.0
[RightHandThumb4]
31	-19.54599953	-11.28499985	11.28499985	0	0	0	1.0
32	-19.54599953	-11.28499985	11.28499985	0	0	0	1.0
33	-19.54599953	-11.28499985	11.28499985	0	0	0	1.0
34	-19.54599953	-11.28499985	11.28499985	0	0	0	1.0
[LeftUpLeg]
31	82.07800293	-67.51699829	-15.99599934	-21.82256699	0.230113551	3.928524256	1.0
32	82.07800293	-67.51699829	-15.99599934	-19.12410355	-0.06421612948	2.573380947	1.0
33	82.07800293	-67.51699829	-15.99599934	-17.56920624	-1.135256886	0.8877657056	1.0
34	82.07800293	-67.51699829	-15.99599934	-17.3959465	-1.13649559	0.8923793435	1.0
[LeftLeg]
31	0	-443.7049866	2.845999956	101.1075363	3.364927053	-4.511958599	1.0
32	0	-443.7049866	2.845999956	101.6088867	1.617245555	-2.847482443	1.0
33	0	-443.7049866	2.845999956	101.7033615	-0.2388418764	0.8748392463	1.0
34	0	-443.7049866	2.845999956	101.1931	-0.2667679787	1.012440324	1.0
[LeftFoot]
31	0	-444.2789917	-29.8219986	-44.34114838	1.512392044	4.792613506	1.0
32	0	-444.2789917	-29.8219986	-44.56427765	1.09621048	2.855318069	1.0
33	0	-444.2789917	-29.8219986	-44.07269669	-0.4166574478	-1.376021504	1.0
34	0	-444.2789917	-29.8219986	-42.45453262	-0.4191268682	-1.447920561	1.0
[LeftToeBase]
31	0	-87.28699493	107.1060028	-49.15139389	-7.658700838e-07	-1.336263836e-06	1.0
32	0	-87.28699493	107.1060028	-47.73476791	4.341686406e-07	9.971398818e-09	1.0
33	0	-87.28699493	107.1060028	-45.75188446	-1.403172263e-07	4.250743189e-07	1.0
34	0	-87.28699493	107.1060028	-44.81993103	-5.978520221e-07	4.244926401e-07	1.0
[RightUpLeg]
31	-82.07800293	-67.51699829	-15.99599934	-93.25131226	-1.231443882	-1.115522027	1.0
32	-82.07800293	-67.51699829	-15.99599934	-88.37714386	-0.3673595488	-0.4789066315	1.0
33	-82.07800293	-67.51699829	-15.99599934	-83.711586	0.1544544399	0.2502618432	1.0
34	-82.07800293	-67.51699829	-15.99599934	-79.34922028	0.2855654061	0.3758238256	1.0
[RightLeg]
31	0	-443.7049866	2.861999989	81.42440033	-2.522328138	-0.3293879032	1.0
32	0	-443.7049866	2.861999989	78.92118835	-1.212736964	-0.8005324602	1.0
33	0	-443.7049866	2.861999989	75.40660095	-0.265317589	-1.289537072	1.0
34	0	-443.7049866	2.861999989	70.58599854	-0.3756729066	-1.27423799	1.0
[RightFoot]
31	0	-444.2770081	-29.83799934	4.400699615	0.282537818	-0.4261035919	1.0
32	0	-444.2770081	-29.83799934	6.183017731	-0.06017474085	0.223819524	1.0
33	0	-444.2770081	-29.83799934	8.343347549	-0.1074539274	0.5912048221	1.0
34	0	-444.2770081	-29.83799934	11.00336647	-0.1125641689	0.5415998697	1.0
[RightToeBase]
31	0	-87.28699493	107.1060028	-1.515573604e-05	-2.909377805e-08	-1.999551955e-07	1.0
32	0	-87.28699493	107.1060028	-1.515573604e-05	-2.909377805e-08	-1.999551955e-07	1.0
33	0	-87.28699493	107.1060028	-1.515573604e-05	-2.909377805e-08	-1.999551955e-07	1.0
34	0	-87.28699493	107.1060028	-1.515573604e-05	-2.909377805e-08	-1.999551955e-07	1.0
[EndOfFile]
